<svg xmlns="http://www.w3.org/2000/svg" xml:space="preserve" id="layer" x="0" y="0" version="1.1" viewBox="-153 -46 652 652"><style>.st0{fill:#004c97}</style><g id="IMF_Seal_Blue"><path d="m-25.8 356.9 1.9-.5-5.3-19.9c-8.3-.5-15.7-1.4-23.5-2.1 5.9-5 13.1-11 18.8-15.7l-4.9-18.8-1.9.5c.9 4 .6 4.5-2.4 5.2L-56 309c-5.2 1.4-10.4 2.6-15.7 3.5-2.3.2-3.1-.3-3.7-1.9l-1-2.6-1.9.5 4.1 15.7 1.9-.5-.4-3.1c-.6-1.6.3-3.4 1.9-4 .1 0 .2-.1.2-.1 5-1.8 10.1-3.4 15.3-4.7l9.1-2.4v.5L-73 329.6l1.8 6.9 32.6 1.9v.6l-24.7 6.3c-2.9.8-3.4.5-4.6-3.4l-1.9.5 6.3 24 1.9-.5c-.9-3.9-.6-4.4 2.3-5.2l28.5-7.5c3-.8 3.5-.6 4.6 3.4m7.1 51.6c11.5-6.3 14.9-16.9 6.3-32-8.6-15-19.1-17.5-30.6-11.1s-14.8 17-6.3 31.9 19.2 17.6 30.6 11.2m-28.6-12.6c-2.4-4.3.4-8.8 12.6-15.7 13.5-7.6 18.2-6.3 20.2-2.7 3.4 6.3-5 11.5-12.8 15.7-11.8 6.6-17.5 7.4-20.1 2.6M79.3 501.1l13.1-29.5 2 .9c3.8 1.7 4.2 2.4 3.5 12.2l2.9 1.3 5-11.3-39-17.4-5 11.3 3 1.3c6.8-7.1 7.5-7.3 11.3-5.6l2 .9L65 494.6c-1.3 2.8-2.4 2.7-7.1.8l-.8 1.8 26.2 11.6.8-1.8c-4.6-2.2-5.6-3.1-4.3-5.8m58.3 16.9c-3.4-12.5-6-25.3-7.9-38.1l-14.3-3.3a365 365 0 0 1-23.8 31.4c-1.9 1.8-2.4 2-6.8 1.2l-.4 1.9 17.6 4.1.4-1.9-4.5-1.4c-1.9-.6-2-1.3-1.2-2.8s3.1-5 5.1-8.1l14.1 3.1c.5 2.7 1.1 6.9 1.4 9.3.3 2.3 0 2.5-1.9 2.3l-4-.5-.4 1.9 31.4 7.3.4-1.9c-4.4-1.4-4.5-1.8-5.5-4.4m-34-19.5c2.4-3.7 6.6-9.7 8.9-12.9h.4c.8 4.9 1.9 11.6 2.5 15.7zm142.3-23.1c.9-2.6 2.1-3.1 5.2-4l-.5-1.9-16.2 4.2.5 1.9 4.1-.7c1.4 0 1.8.5 1.5 2.1s-1.8 10.5-3.1 17.1c-4.1-3.9-11-10.6-13.4-13.1-.9-.9-1-1.7 0-2.1l3.7-1.3-.5-1.9-30.3 7.9.5 1.9c3-.6 3.7-.6 5.7.9 3.6 2.7 12.8 11 17.5 15.5.7.7 1.3 1.6 1.5 2.6l1.9 8.1c.8 2.9.4 3.1-5.8 5l.5 1.9 31.4-8.1-.6-1.7c-6.3 1.4-6.7 1.3-7.6-1.6l-2.3-8.7q-.45-1.5 0-3c1.8-6.3 5-16.9 6.3-21m62.8-.1-7.1-10.4 2.8-1.9c3.1-2.1 4.1-1.6 9.1 1.7l2.3-1.6-8.7-12.6-2.3 1.6c1.3 6.3 1.1 6.7-1.9 8.9l-2.8 1.9-8.6-12.6c-.9-1.3-.8-1.7.8-2.9l1.8-1.2c4.9-3.4 7.8-1.4 14.2 2.1l2.3-1.6-7-10.1-31.8 21.7 1.1 1.6c3.5-2.2 4-2 5.7.5l16.6 24.3c1.8 2.5 1.6 3.1-1.6 5.4l1.1 1.6 21.5-14.7-1.1-2.2c-4.3 2.8-4.7 2.6-6.3 0m46.9-55L341 406.3c-2.3-2.1-2.3-2.6 0-5.3l-1.4-1.3-14.9 16 1.4 1.3c2.6-2.6 3.1-2.5 5.3-.4l16.9 15.7c5.4 5 6.8 8.1 4.2 10.9s-5.8 1.6-11.2-3.4L324.6 424c-2.3-2.1-2.3-2.6 0-5.3l-1.4-1.3-15.2 16.5 1.4 1.3c2.5-2.6 3.1-2.5 5.4-.5l15.2 14.1c7.1 6.7 13.4 7.6 24.2-4s9.2-17.9 1.7-25.1m41.6-109.2c-5.3-2-11.3-1.5-16.2 1.6-5 4.2-8.2 10.1-9.2 16.6l-6.8 25.3 1.9.5c1.2-3.9 1.7-4.1 4.6-3.1l28.5 7.7c3 .8 3.1 1.3 2.3 5.2l1.9.5 5.8-21.7c2-5.8 2.5-12.1 1.4-18.1-1.3-7.3-7-13-14.2-14.5m10.9 30.4c-.6 2.4-1.5 2.8-3.1 2.3l-30.5-8.2c-1.3-.3-1.4-1.1-.8-3.1 1.6-6.3 7.7-8 19.7-4.8 15.2 4.1 16.1 9.9 15 13.8M-67.6 222.2l28.5 7.3c3 .8 3.1 1.2 2.3 5.2l1.9.5 6.3-24.3-2-.5c-1.1 4-1.6 4.1-4.6 3.4l-28.2-7.6c-3-.8-3.3-1.1-2.4-5.2l-1.9-.5-6.3 24.4 1.9.5c1.1-3.9 1.6-4.1 4.6-3.4m40.2-78.8c-5.3-8.3-5.3-9.1-2.7-12.6l1.3-1.7 25.4 20c2.4 1.9 2 3.1-1 7.1l1.6 1.3 10.5-13.4v-6.6l-1.1-.7-25.4-19.9 1.3-1.7c2.5-3.3 3.3-3.4 12.6-.3l1.9-2.4-9.8-7.6-26.6 33.9 9.8 7.6zm194.5-79.4-4.3-.4c-1.8 0-2.1-.9-1.6-2.5s1.9-5.5 3.1-8.9l13.2.4c.9 2.5 2.2 6.3 2.9 8.8s.4 2.4-1.4 2.6h-3.6v1.9l29.7 1v-2c-4.2-.5-4.4-.8-5.6-3.1-5.2-11.7-9.7-23.7-13.6-36l-13.5-.4c-4.7 12-10.1 23.8-16.1 35.3-1.4 2.1-1.9 2.4-5.9 2.5v2l16.6.6zm4.2-28.9h.4c1.5 4.6 3.7 11 5 14.8h-11.2c1.5-4 4.3-10.8 5.8-14.4m50.8-1.8 2.3.5-8 31.4c-.8 3-2 3.1-6.8 1.9l-.5 1.9 27.7 7.1.5-1.9c-4.9-1.4-6.3-2.1-5.2-5l8-31.4 2.1.6c4.1 1.1 4.5 1.7 5.5 11.5l3.1.8 3.1-12L212 28l-3.1 12 3.1.8c5.6-8.1 6.3-8.4 10.2-7.3m44.5 49.6 12.2-26.8c1.3-2.8 1.7-3.1 5.5-1.4l.8-1.7-23.1-10.5-.8 1.7c3.6 1.8 3.8 2.3 2.5 5.1l-12.2 26.8c-1.3 2.7-1.8 3-5.5 1.4l-.8 1.8 23 10.5.8-1.8c-3.7-1.8-3.8-2.3-2.6-5.1m14.8-10.5c-7.6 10.7-5.6 22 9.4 32.7s26.5 8.8 34.1-1.9 5.7-22-9.4-32.8-26.4-8.8-34.1 2m15.2 10.8c9-12.6 14-13.3 17.5-10.8 6.3 4.3.8 12.8-4.3 20.1-7.8 11-12.6 14.1-17.6 10.7-5-3.3-3.8-8.4 4.4-20m54.1 74.8c-2.6 0-3.1-.4-5.1-3.8l-1.7.9 7.7 14.7 1.8-.9-1.7-3.9c-.7-1.6 0-2.3 1.4-2.6s5.7-1.1 9.4-1.6l6.3 11.7c-1.8 2-4.6 5.2-6.3 6.8-1.6 1.6-1.9 1.6-3 0l-2.1-3-1.7.9 13.7 26.4 1.8-.9c-1.6-4-1.4-4.2 0-6.3 7.6-10.3 15.8-20.3 24.4-29.8l-6.3-11.9c-12.8 1.8-25.7 2.9-38.6 3.4m29.9.1v.4c-3.1 3.6-7.7 8.7-10.4 11.7l-5.2-9.9c4.3-.7 11.5-1.7 15.6-2.2m28.5 41.1-1.9.4c.8 4 .4 4.4-2.5 5.1l-28.7 6.7c-3.1.7-3.4.4-4.4-3.5l-1.9.4 8.6 37.7 13.1-1.7-.7-3.1c-9.8-2.3-11.6-3.7-12.6-8s-.8-5.1 2.2-5.7l28.2-6.3c3.1-.7 3.5 0 4.7 4.2l1.9-.4zM58 464.3l6.3-8.4-31.4-23-1.1 1.6c3.1 2.5 3.1 3.1 1.4 5.6l-17.5 23.6c-1.8 2.4-2.3 2.6-5.7 0l-1.2 1.6 32.3 24.1 6.3-8.3-2.1-1.5c-8.1 3.1-9.4 2.5-13.8-.6s-4.2-3.1-2.2-5.9l7.5-10.3c3.5 2.6 4.5 3.3 3.1 7.5l2.2 1.6 6.3-8.2-2.2-1.6c-3.1 2-4.2 1.2-7.7-1.4l8.2-11.1c1.1-1.5 1.4-1.6 3.1-.4l2 1.4c4.7 3.4 4.8 3.8 3.9 12.6zm-6.9-362-6.7-8-2.1 1.8c1.1 8.6 0 9.9-3.8 13.3-3.8 3.5-4.1 3.4-6.3.8l-8.5-10c3.3-2.8 4.3-3.6 8-1.4l2.1-1.8-6.6-7.8-2 1.8c1.2 3.6 0 4.4-3.1 7.2l-8.7-10.5c-1.2-1.4-1.3-1.7 0-3.1l1.9-1.6c4.5-3.7 4.8-3.7 13-.9l2.1-1.8-6.7-7.9-29.6 25.1 1.3 1.5c3.1-2.5 3.7-2.4 5.7 0l17.5 20.7h12.6zm-8-36.2 13.4 26.2c1.4 2.7 1.2 3.1-2.7 5.4l.9 1.8 24.2-12.6-.9-1.8c-4.1 1.9-4.5 1.8-5.9-.9L66.3 73l1.2-.6c1.8-.9 6.3-3.1 7.6-1.2 1.8 3.7 3.9 7.2 6.3 10.6 3.1 2.8 4.7 1.4 11.7-2.2l8.9-4.4-.9-1.8c-3.6 1.2-4.5 1.1-9.4-4.5-3.1-3.6-5.9-6.9-15.9-3.6V65c9.7-5.4 9.4-10.1 7.2-14.8-4-7.8-10.9-5.2-19.4-.8l-27.5 14 .9 1.7c4-1.9 4.6-1.7 5.9 1m16.6-12.2c3.3-2.4 7.9-1.7 10.3 1.6l.1.1c.4.5.7 1.2.9 1.8 1.9 3.7 1.5 7.4-5.1 10.9l-1.3.7-6.3-11.9c-.8-1.6-.8-2.2 1.4-3.3m134.5 460c-1.2-4.7-2-8.9-12.6-10.5v-.4c11.1-.3 13.1-4.6 13.1-9.8 0-8.8-7.3-9.6-16.8-9.6H147v1.9c4.5 0 4.8.6 4.8 3.6v29.4c0 3.1-.4 3.4-4.8 3.5v1.9h27.1v-2c-4.5 0-4.8-.5-4.8-3.5v-12.6h1.3c2.1 0 6.9 0 7.3 2.4-.1 4.2.2 8.4.8 12.6 1.6 4 3.6 3.5 11.4 3.5h9.9V522c-3.7-.6-4.5-1.1-6.3-8.3m-23-12.5h-1.5V488c0-1.8.3-2.3 2.8-2.3 4-.8 7.9 1.7 8.7 5.7q.3 1.2 0 2.4c0 4.2-2.1 7.3-9.4 7.3M104.8 38.8l2.9 14.3c1.1 4.9 1.9 9.9 2.4 14.9 0 2.4-2.5 3.4-4.2 4l-1.7.5.4 1.9 18.8-3.8-.4-1.9-4.3.4c-1.6.3-3.1-.7-3.5-2.2-.8-2-2.4-9.4-3.5-14.7l-2-10.2c9.3 8.7 16.5 17.5 26 26.2l12.6-2.5-4.3-22.3c-.9-4.1-1.6-8.3-1.9-12.6 0-3.1 2.4-3.1 4-3.8l1.9-.5-.4-2-18.8 3.8.4 1.9 4.1-.4c1.4-.4 2.9.4 3.3 1.8v.4c1.3 4.1 2.4 8.3 3.1 12.6l1.3 6.3c-7.3-6.3-15.7-14.3-22.4-20.3L100 34.4l.4 1.9c4-.7 4.5-.3 5.1 2.7m209.6 78.9-1.4-1.3-1.5 1.3 1.1 1.3h3.1l-1.6-1.4m28.6-17.6-10.9 9.7c-3.8 3.3-9.1 7.8-11.3 9.4h7.2c2.1-2 4.7-4.3 6.7-6.3l7.8-7.1c-2.8 12.6-6.9 23.1-9.4 35.7l8.4 9.4 17.1-15.1c3.1-2.9 6.4-5.7 9.9-8.1 2.6-1.5 4.1.5 5.2 1.6l1.4 1.4 1.4-1.3-12.6-14.2-1.4 1.3 2.4 3.1c1.1 1 1.2 2.7.2 3.8v.1l-.2.2c-2.9 3.3-6.1 6.4-9.4 9.3l-4.9 4.4c1.8-9.4 4.4-20.8 6.3-29.6l-12.9-14.6-1.4 1.3c2.6 3.1 2.5 3.7 0 5.7m22.9 262.6c-2.3-2-.9-3.9 0-5.4l.8-1.8-1.7-.9-9.4 16.7 1.7.9 2.3-3.4c.6-1.4 2.3-2 3.6-1.4h.3c3.9 1.6 7.7 3.5 11.3 5.5l5.7 3.1c-9.4 1.5-21.1 2.8-30 4l-9.4 17 1.7.9c2.1-3.5 2.6-3.6 5.3-2.1l12.6 7.1q6.75 3.45 12.9 7.8c1.8 1.6 1 4.1.3 5.8l-.7 1.7 1.7.9 9.4-16.9-1.8-.9-2.4 3.5c-.8 1.4-2.5 1.9-4 1.2-2-.7-8.8-4.3-13.4-6.8l-9.1-5.1c12.6-1.4 24.1-1.2 36.8-2.9l6.3-11.1-20-11.1c-3.8-2-7.4-4.2-10.9-6.7M23.6 430.4c2.5-1.6 4 .3 5.2 1.4l1.4 1.3 1.4-1.3-13.1-13.9-1.4 1.3 2.5 3.1c1.1 1.1 1.1 2.8 0 3.9v.2c-2.7 3.2-5.6 6.2-8.8 9.1L6 439.9c1.5-9.4 3.8-20.9 5.5-29.7L-1.6 396l-1.4 1.3c2.7 3.1 2.6 3.6.4 5.7l-10.6 9.9c-3.9 3.6-9.6 8.7-11.4 9.9s-4.2-.3-5.6-1.5l-1.8-1.1-1.4 1.4 13.2 14.1 1.4-1.4-2.6-3.5c-1.1-1.2-1.1-3 0-4.2 1.3-1.7 6.7-7 10.7-10.6l7.6-7.2c-2.5 12.6-6.3 23.3-8.6 35.9l8.7 9.4 16.7-15.7c3-3 6.3-5.8 9.8-8.3m-78.8-244.5 13.3 6.3c4.8 2.2 11.7 5.5 13.5 6.7s1.3 4 .8 5.7l-.6 1.8 1.8.8 7.9-17.6-1.8-.8-2.1 3.8c-.7 1.5-2.4 2.2-3.9 1.5-2-.6-9.1-3.5-13.9-5.6l-9.4-4.3c12.6-2.6 23.9-3.3 36.4-6.3l5.2-11.6-20.7-9.9c-4-1.6-7.8-3.4-11.5-5.6-2.4-1.7-1.3-3.9-.8-5.4l.7-1.8-1.8-.8L-50 160l1.7.8 1.9-3.7a2.8 2.8 0 0 1 3.5-1.7h.3c4.1 1.3 8.1 2.8 11.9 4.6l6.3 2.7c-9.4 2.3-20.8 4.6-29.5 6.3l-8.3 18.5 1.8.8c1.8-3.6 2.3-3.8 5.1-2.6m-6.4 82.1 4.3-12.5 3.9 12.5H-41l-10.4 7.9 4.1 12.4-10.4-7.9-11.3 8.2 4.7-13-10.1-7.6zm455.9 0 4.5-12.5 3.7 12.5h12.7l-10.5 7.9 4.1 12.4-10.3-7.9-11.4 8.2 4.7-13-10.1-7.6z" class="st0"/><path d="M331.4 176.6V121h-51.8A188.4 188.4 0 0 0 61 121H9.7v54.9c-54.7 88.7-27.2 205 61.6 259.8s205 27.2 259.8-61.6c37.3-60.5 37.5-136.9.4-197.6m-4 69.2A94.56 94.56 0 0 1 180 334.6c-1.8-1.3-3.6-2.6-5.3-4l-2.4-2c39.7-34.9 43.6-95.5 8.7-135.2q-4.05-4.65-8.7-8.7l1.1-.9 3.1-2.4c41.5-31.6 100.9-23.6 132.5 17.9a94 94 0 0 1 18.7 46.5M219.8 396.6q-1.05.15-2.1 0c-.8 0-1.6.3-2.4.4s-1.7-.8-2.7-.6l-2.3.6-6.3 1.3c-2.9.3-5.8.4-8.8.4-1.6.1-3.2.1-4.9 0-1.7.2-3.4.1-5-.5 1.6-.7 3.3-1.2 5-1.5q2.7-.3 5.4-.9c3.8-1 7.6-2.3 11.3-3.7 3.6-1.7 7.4-2.9 11.3-3.8 1.6-.1 3.3-.1 4.9 0h8c4-.5 7.8-1.6 11.5-3.1 2.2-.8 4.5-1.4 6.8-1.7h3.4c.5 0 1 .1 1.4.4.4 0 1.8 1.8 1.2 2.3s-.7 1.2-1.5 1.2h-1.8c-.5 0-1.3.9-1.7 1.3l-5.5 4.7c-2.4 2.4-5 4.7-7.7 6.8-1.5 1.1-3 2.2-4.6 3.1-1.7 1.2-3.5 2.3-5.3 3.1a59 59 0 0 1-11.8 2.6c-3.7.3-7.4.3-11 0-2.9-.5-5.7-1.2-8.4-2.3-3.1-.9-6.3-1.7-8.9-2.8s-5.8-2.6-8.7-3.6q5.4.9 10.8.9h18.1c1.9-.2 3.8-.5 5.6-1.1 4-.7 7.9-2 11.4-4-1.6 0-3.2.3-4.6.9m-49.6-70.3c-38.7 34-97.6 30.2-131.6-8.5s-30.2-97.6 8.5-131.6 97.6-30.2 131.6 8.5c15 17 23.2 38.9 23.2 61.5 0 26.9-11.5 52.4-31.7 70.1m0-235.5c35.6 0 70.4 10.4 100.1 29.8H70c29.8-19.5 64.7-29.9 100.3-29.8M-13.3 274.9c0-31.2 7.9-61.9 23.1-89.1v113.5c-.1 12.7 1.6 25.4 5 37.7 7 23.4 20 44.6 37.7 61.6 16 15.4 34.2 28.3 54 38.3 14.9 7.7 30.4 14.1 46.4 19.1 3.3 1.1 6.7 2 10.1 3-98.5-4.3-176.2-85.4-176.2-184m173.4 140.7c-2-1.2-3.7-2.9-5-4.8-.7-1.2-1.5-2.2-2.5-3.1s-2.2-2.3-3.6-2.4-3.1 0-4.8 0c-.5 0-1.1-1-1.4-1.3-.5-.5-1.1-1-1.7-1.4l-1.7-1.1c-.9-.6-.9-1.1-1.7 0 1.4 1.4 2.6 2.9 3.8 4.5.4.6 0 1.9 1.1 1.9 1.3-.1 2.5-.1 3.8 0 4.2.6 6.7 5 8.3 8.6a17 17 0 0 1 .9 8.7c-.3 1-.7 1.9-1.2 2.8 0 0-.6 2.1-.9 2.2l-3.4.9c-1.9.3-3.9 0-5.7-.7-2.1-.6-4-1.7-5.7-3.1-.6-.4-2.1-1.1-2.4-1.8l-1.8-3.8c-.3-.9-.4-1.8-.4-2.7-.6-3.6.7-7.2 3.3-9.7.6 1.1.8 2.3 1.3 3.4.2.8 1.1 1.3 1.9 1 .3-.1.6-.3.8-.5 1.1-1.1-.9-2-1.4-2.7-.4-.4-.5-.9-.4-1.4.1-.6-.2-1.3-.6-1.7-.8-1-1.7-2-2.7-2.8-.6-.6-2.3-1.6-2.4-2.4-.2-.8-.5-3.1-1.6-1.7s0 2 .5 3.1c-2.1-.1-4.3-.6-6.3-1.3-1.8-.5-3.6-1.1-5.4-1.7a92 92 0 0 1-10.2-4.3c-3.6-1.4-7.4-2.6-11.2-3.5-.7-.1-1.5-.1-2.2 0-.9 0-2.6-.6-3.4 0-.8.5-1.6.7-2.5.8-1 0-2-.4-2.9-1-3-2.3-3.1-6.6-5.5-9.4-2.2-3.2-4.9-6-8.1-8.1-1.3-.7-3.7-2-4.1-3.5s-.6-2 .6-2c1.1-.2 2.2.3 2.8 1.3 1.1 1.3 3.5.6 4.7 1.4l5.1 3.1c3.5 2.1 6.3 4.7 9.8 7 3.1 2.1 6.4 3.9 9.9 5.3 3.1 2 6.6 3.6 10.1 4.6q3 .3 5.7 1.8c1 .5 1.4.6 2.2 0 .7-.7 1.2-1.5 1.4-2.4.2-.4.5-.7.8-1.1l-.7-1c-.4-.8-.7-1.7-.7-2.6.4-.9.9-1.8 1.5-2.6a20 20 0 0 1 1.9-2.2c1.1-1.4 2.5-2.4 4.1-3.1 1.8-.5 3.6-.9 5.5-1 1.8-.4 3.7-.4 5.5 0 .8.5 1.8.9 2.7 1.2h2.6a5.3 5.3 0 0 1 1.3 5.1q-.9 3-2.7 5.7c-.6.8-.8 1.9-1.6 2.4a54 54 0 0 1-3.1 2c-2.1 1.1-4.4 1.7-6.7 1.8-1.1.1-2.3-.1-3.4-.3-.7 0-2.7 0-2.8-.9s.9-2 1.8-2.8c.8-.8-.4-2.3-.8-3s-.6.4-.6.8v1.2l-2.1 2.1s-.6.5-.6.8v1.3c-.5.7-1 1.3-1.6 1.9 1.7.8 3.4 0 5.2.4.8 0 1.6.8 2.4.8h6.9c.7 0 1.5-.8 2.4-.9 1.8-.3 3.5-1 5.1-1.9.9-.2 1.7-.7 2.4-1.2.7-.8 1.4-1.4 2-2.2 1.1-1.5 2.4-2.9 3.8-4.2 3-2.4 6-4.7 9.1-6.8 3.4-2.4 7-4.5 10.7-6.3 1.8-.5 3.6-.8 5.5-.8 2.1.1 4.2-.1 6.3-.4q5.4-.6 10.8 0c2.2.4 4.6.3 6.7.9 1.9.6 4 .8 6 .7h5.7c1.9 0 3.8-.4 5.7-.6 1.7-.1 3.5.1 5.1.6 1.1.4 5.4 1.6 3.1 3-1.7.9-3.6 1.5-5.6 1.7-1.8.6-3.4 1.4-5 2.4-1.5 1.2-3.1 2.2-4.8 3.1q-2.7 1.2-5.4 2.1a86 86 0 0 1-10.9 3.4c-1.9.5-3.7 1.3-5.6 1.8-.9.1-1.9.1-2.9 0-1 0-2 .3-2.8.8-.9.3-1.8.4-2.8.5-1 .2-1.9.4-2.9.7-1.9.5-3.9.7-5.8 1.1-3.7.6-7.6.8-11.3 1.3-1.9.1-3.7.1-5.6 0h-2.5q-1.35.15-2.7 0c-2-.4-3.1.9-5.1 1.4-.9.3-1.7.7-2.5 1.3-.9.6 1.7 1.4 1.8 1.5 2.1.3 4.2.4 6.3.4.8.1 1.5 0 2.2-.4.8-.5 1.8-.8 2.8-.9 3.6-.4 7.3-.4 11 0 2.1 0 4.3.4 6.3 1.1l5.5 2.1c3.5 1.3 6.7 2.8 10.1 4.1 1.9.8 3.9 1.3 5.9 1.6 1.6 0 3.1 1.3 4.5 1.6 3.6 1.1 7.4 1.8 11.2 2h4.1c1.4 0 2.6-.9 4-.6 1 .1 2.1.1 3.1 0 .8.3 1.6.6 2.4 1.1 1.6.6 2.2.4 1.8 2.3-.7.3-1.5.6-2.3.7-1-.1-2.1-.1-3.1 0-2.6.8-5.2 1.9-7.6 3.1-1.8 1-3.7 1.9-5.6 2.6l-6.7 2a39 39 0 0 1-11.2 2 30 30 0 0 1-12.6-1.9l-5.5-2.6c-4.3-1.9-8.4-4-12.6-6.3m14.1 43.2c6.9-1.4 13.8-3.1 20.6-5.3 17.2-5.2 33.9-12.1 49.7-20.7 17.1-8.7 32.5-20.5 45.3-34.9 15.7-18.1 29.9-37.7 35.7-61 4-12.2 5.7-25.1 5.1-37.9V186.7c48.8 89 16.2 200.6-72.8 249.4a184.4 184.4 0 0 1-83.7 22.6" class="st0"/><path d="M186 419.4c1.9.3 3.8.5 5.8.6 2.5.5 5 .5 7.4 0 1.9-.5 3.9-.9 5.9-1.1v-.9q-2.85-.3-5.7 0c-2.5-.2-4.9-.6-7.3-1.2-2.4-.4-5.1-1.4-7.6-2.1-4.6-1.4-9.1-3.2-13.4-5.2-3.6-1.4-7.5-2-11.4-1.8.3 1.2 4.4 1.6 5.4 1.9 1.6.6 3.2 1.3 4.6 2.3 3.3 2 6.6 3.7 10.1 5.4 1.8 1 3.8 1.8 5.8 2.4m-99.2-40c-1-1.1-2.2-2.1-3.5-2.8-.6.9 2 2.5 2.6 3.1s3.6 3.7 3.1 5.2c-.4-.7-1-.8-1.1 0 0 .6.2 1.3.4 1.9q.3 1.05.9 2.1c.5.5 1.4.5 1.9 0 .2-.2.4-.5.4-.8a9 9 0 0 0-1.3-5.5c-1.1-1.2-2.2-2.4-3.5-3.4m68.1 14c3.6-1.1 7.2-2.3 10.8-3.3s7.4-1.5 11.1-2.3c3.8-.9 7.7-1.4 11.6-1.7 2-.1 3.9-.4 5.8-.7 1.6-.4 3.1-1.1 4.6-2 2-.9 4.1-1.4 6.3-1.7 1.7 0 3.5-.1 5.2-.4 0 0 1.2-.4 1.1-.6s0-.7-.8-.7H207c-1.8.1-3.5.4-5.2.8-4 .5-7.9 0-12 .7-3.5.4-7.1 1-10.5 1.9-4.5 1-8.8 2.4-13.1 4-4.3 1.8-8.4 3.8-12.6 5.7 0 .5.6.4 1 0M64.2 191.8c.8-1.1 2-1.9 3.4-2.2.5 0 1.3.3 1.1.8s-.9 1-1.1 1.6c-.3 1.5-1 2.8-1.9 4-.6.8.3.8-.9 1.3q-.9.3-1.8.9c-.5.4-1 .6-1.6.6-.7 0-1.3-.8-1.9-.8s-1.4 0-1.4-.4q.3-1.05 1.2-1.8c.6-.6 2.4 0 3.6-.6s1-2.4 1.3-3.4m-7.6 6c.5 0 1 .3.3.6s-1 0-.3-.6" class="st0"/><path d="M171 189.1c-1.4-1.2-3-2.2-4.6-3.1-1.6-1-2.7-2.5-4.3-3.7-.7-.6-1.4-1.2-2-1.9-.6-.6-1.6-.8-2.2-1.3a9 9 0 0 0-5.1-2.4q-1.2-.15-2.4 0c-1-.1-2 .2-2.8.9h-1.3c-.3 0-.4 1-.5 1.2-.2.9-.6 1.7-1.1 2.5-.5.6-1 1.4-1.9 1.4-1-.1-2.1-.1-3.1 0l-2.9.3c-.8 0-1.5.7-2.3.8-1 .3-2.1.4-3.1.4-1-.2-2.1-.3-3.1-.4-1.3 0-1.5 0-2.4.8-.6.7-1.3 1.4-2.1 1.9a36 36 0 0 1-5.5 2.9c-1 .3-1.9.7-2.7 1.3-1.3 1 0 1 0 2.2-.9 0-1.3-.6-1.8-1.2-.6-.6-.6-1.7-.9-1.6-.7 0-1.3.4-1.7 1-.6 1.1-.7.8-1.9.6-1.5-.2-3.1-.2-4.6 0-.9 0-3-.8-3.5 0-.6.8-1.2.6-2.1.7s0-1.8 0-2.3c-.7-.7-1.2-1.4-1.6-2.3-.7-1.7-2.4-2.7-4.2-2.5-.8.1-1.6-.1-2.2-.6-.8-.6-2.1-.7-2.6 0s-1.2 1.2-2 1.6c-.4 0-.6.6-.9.8-.4.2-.9 0-1.4 0s-1.3 1.1-2.1 1.1c-1.1 0-2.1.2-3.1.4q-1.2.15-2.4 0c-1 0-1.5.9-2.1 1.6-.5.6-.8 1.4-.7 2.2 0 1 1.3.8 2.1.9s.8 0 .8.3v1.3c0 .9-1 1.3-1 2.2s4.1.6 4.8 0 0-.8.5-1.1c.3-.3.7-.6 1.1-.8.9-.4 1-1.6 1.6-2.4 1.2-1.4 2.6-2.5 4.3-3.1.6 0 2.3 0 2.3.4.1 1-.4 1.9-1.2 2.4-.6 0-1.9-.4-2.5 0s-1.4 0-2 1.3-.6.7 0 1.2.5.9.4.9q1.35.15 2.7 0c.9-.4 1.8-.6 2.8-.7 1.1 0 1.9 0 1 1.2-.8 1.2-3.5.6-4.9 1.1-1 .4-1.9.7-3 .9-.9-.1-1.8.1-2.5.6-.7.6-1.4 1.2-2 1.9-.7.7-2.1-.5-2.6-.8-1.9-1 0-3.6-1.2-4.7s-1.9 0-2.5 0c-.9-.2-1.8 0-2.6.4-1.5 1.1-3.1 2-4.8 2.6-.8.2-1.6.6-2.4 1-.9.1-1.8.1-2.8 0h-2.3c-.8 0-1.3.7-1.9 1.9-.4.7-.9 1.3-1.5 1.9-.8.8-1 1.6-1.8 2.4s-1.5-.9-1.9-1.1-2 .4-2.6 0-1.3-1.1-2.1 0c-.7.6-1.1 1.5-1.2 2.4-.1.8-.5 1.4-1.1 1.9-.6.6-1.7 1.2-1.3 2.1.4.8.6 1.8.6 2.7 0 1.2 1.7.9 2.4.9 1.3 0 2.6.3 3.9.5s1.3-.4 2.1-1.4.8-.6.9-.9-.3-.8.4-.8c.9-.1 1.8 0 2.6.3.7.5 1.6.7 2.4.3s1.8-.4 2.6 0c.7.7 1.1 1.5 1.7 2.2s0 1.9 0 2.6c-.1.4-.1.9 0 1.3.5.4.8 1 .8 1.6 0 1 0 1.2-.9 1.8s0 1.1 0 1.4c1.2-.1 2.3-.6 3.1-1.4l.3 1.3c1.6-1.6 1.4-2.7 1.4-4.8 0-.7-1.1-1.1-1.1-2v-1.3c0-.8 0-.9.6-.9 2.1 0 1.9 2.8 1.9 4.2q.15 2.55-.3 5.1c1.1 0 3.6 0 4-1.4s-.3-1.4-.3-2 1.1-.3 1.6-.3c-.4.9-.5 1.8-.5 2.8 0 .4-.5.4-.4.8-.1.5-.1 1 0 1.4.4.6 1.8.6 2.4 1.1.4.3.6.7.5 1.2 0 .8.5 0 1 .3s1.6 1.4 1.4 1.8-.8 1.8-1.5 2.1c-.9 0-1.7-.1-2.5-.4-1-.2-1.9-.6-2.8-1.3-.6-.6-1.3-1.1-2.2-1.4q-1.2-.15-2.4 0h-2.5c-.3-.9-.8-1.7-1.4-2.4-1-1-3.9-.7-3.9-2.8v-1.3h.6c.4.8.9 1.6 1.4 2.3.8-.6.5-1.4 0-2.2-.2-.3-.5-.6-.8-.8-.6-.6-.4-.4-1.2-.4s0 .4-.8 0c-.3-.2-.6-.5-.7-.9 0-.6 0-.6-.8-.8s-.7-.8-1.2-.9c-.8-.1-1.5-.1-2.3 0h-3.7c-.8.1-1.5.1-2.3 0l-3.1-1.5s-1.4-1.1-1.6-.9l-1.6 1.1-6.3 4.5q-4.65 2.55-8.4 6.3l-4.8 5.8c-.6 1.4-1 2.9-.9 4.5l-1 6.3c-.2.9-.5 1.9-.8 2.8q.15 1.05.6 2.1c.5 2 1.2 3.9 1.9 5.8L22 258c.2.9.2 1.7 0 2.6 0 1.2 0 1.3.9 2.1s1.2.6 2.5 0 1.4-.5 2.4.5 1.4.6 2.5.7 5 0 5.6 0c.6.7 1.2 1.3 1.9 1.8.7.4 2.4.9 2.8 1.6s0 2.4 0 3.1c-.1.8.1 1.6.4 2.3.9 1.9 1.7 3.9 2.4 5.9s2 3.1 2 4.7v3.1c-.2 1-.6 2-1.1 2.9-.1.6.1 1.3.5 1.7l2 3.5c.7 1.3 1.3 2.7 1.8 4.1 1.6 3.9 3.1 7.8 5.1 11.6l2.7 5.4c.5.6 1.2.9 2 .9s1.5-1.2 2.2-1.5l6-3c1.7-.8 1.6-3.1 2-4.9s.4-1 1.3-1.4c1.5-.4 2.4-1.8 2-3.3v-.4c0-.4-.6-.8-.8-1.2q-.15-1.2 0-2.4c0-1.9 1-2.3 2.2-3.5 1.2-1.1 1.8-2.8 1.5-4.5V283c0-.8-2.7-3.4-1.9-4.3l3.5-3.6c3.1-2.9 5.9-6 8.6-9.3 1.1-1.4 1.8-3.1 2.2-4.8.1-.9.4-1.8.9-2.6 0-.3 1.8-2.1.9-2.4-2.3-.3-4.5.3-6.3 1.8-1 .1-1.9 0-2.8-.3-1.9-.9-1.8-3.1-2.9-4.5s-1.2-1.9-1.9-2.2c-.4-.2-.9-.2-1.3 0-.2 0 0-1.5 0-1.8-.4-1.8-.9-3.5-1.6-5.2-.3-.9-.7-1.7-1.3-2.4-.3-.9-.3-1.8 0-2.6v-2.5c0-.6 1.4-1.8 1.9-1.3.7 1.7 1.2 3.4 1.5 5.2.5 1.9 1.1 3.8 1.9 5.6.5.9 1.2 1.2 2.1 1.7s.6 1.4.7 2.2c.2 1.4.5 2.7.9 4.1.4 1.2 1.2 1.1 2.3 1.4s2-.5 2.7-.7l2.7-.9c1.6-.8 3.2-1.8 4.6-2.8.8-.4 1.7-.7 2.6-.8.6 0 1.4-1.6 1.8-2.1.3-.5 1.2-1.1 1.4-1.8.3-.7 1.7-2.5 1.1-2.5h-1.3c-.1-.7-.4-1.4-.9-1.9-.8-.8-3.1-.6-4.2-.6s-1.4 0-2.1-1.1c-.5-.8-.9-1.7-1.3-2.6-.2-.5-.4-1.1-.3-1.7.7 0 1.4.5 1.8 1.1q.3 1.2.3 2.4h2.4c.8-.1 1.7.3 2.1 1 .9 1 1.2 1.4 1.7 1.4l3 .4q2.25-.45 4.5 0c.9 0 1.7.3 2.3 1 .6.6 1 1.4 1.4 2.1.7 1.2.6 1.3 2 1.4s.9 0 1 1.1c0 1.8.4 3.6 1.1 5.3.9 1.6 2 3.1 3.1 4.6.9 1.4 1.8 2.7 2.9 4q1.65-1.8 2.1-4.2c0-.7.3-1.3.9-1.6.6-.6.6-1.2.6-2.1-.2-1.7.6-3.3 1.9-4.2 1.1-1.1 2.4-1.9 3.5-3.1 1-1.2 2.5-1.8 4-1.7.9 0 1.5 0 1.9.9s0 1.6.4 2.2.3.8.6.9c.4.1.7.2 1 .4.4.4.5 1.7.8 2.3.9 1.9 2 2.2 3.3.4.2 1.5.7 3 1.4 4.4.7 1.5 1.2 3.1 1.4 4.7.4 1.6 1.1 3.2 1.9 4.6s1.7 3.1 3.4 3.7c.8 0 1.3 0 .9-.9s-.6-.4-.6-.7v-1.6c-.2-1.6-.8-3.2-1.8-4.5-.6-.6-1.3-1.1-2-1.5-.5-.5-.8-1.2-.9-1.9-.5-1.5 0-3.1 1.3-4.1 1.1 1.1 2.7 3.8 4.3 4 1.6.3 1.5-1.1 2.2-1.8s.8 0 1-.5c.5-.3.9-.9 1-1.4.3-2.2-.1-4.4-1.2-6.3-.4-1.1-.6-2.3-.5-3.5 0-.6 1.6-1.8 2-2.3.4.5 1 .8.5 1.2-.4.4-.4 1.1 0 1.6s1.3-.3 1.6-.6 0-1.4 0-1.8c0-1.2.9-2.3 2.1-2.5.9 0 2.1-1.9 2.8-2.6.6-1 1-2 1.1-3.1q.3-2.1 0-4.2c-.1-2.7-1.1-5.2-2.8-7.3.4-.4 1.3-1.2.7-1.9s-1.5.4-2.1.9-1.1-1.9-.6-2.3c.4-.2.8-.5 1.1-.8.6-.6.6-.5 1.2 0s1.1 1.2 1.8 1.7.6 1.7.8 2.7c.3 1 .4.7.8 1 .3.3.5 0 .8-.4s1.4-1.1 1.4-1.8v-2.6q-1.35-1.05-1.5-2.7c-.4-1.7 0-3.5 1.1-5 .9-.9 1-.9.4-2.1 0 0-.7-.5-.6-.8.3-.4.4-.9.3-1.4 0-1.9 1.1-3.1.4-5.1-.6-1.8-1.5-3.5-2.7-5l-2.1-1.9c-.5-.5-1.8-1.1-2.1-1.7s0-.9 0-1.3-.7-.7-.9-.9c-.3-.3-1.6.6-2.3.6s0-2.4 0-2.6c.3-.8.9-1.4 1.8-1.6 1 .2 1.9-.2 2.6-.9.8-.8.6-1.5 1.3-2.2.9 1 1.6 2.2 2.2 3.4l.6 1.3h.8c.2 0 .7.9 1.9.9s2.6 1.3 4 1.3 1.5.3 1.5-.9c-.1-.7-.4-1.4-.8-2m-88.9 12.1c.8 0 .6.5 0 .8-.6.2-.9-.6 0-.8m4.2 21.3c-.9 1.2-3.5-1.1-4.7-.8s-1.9 0-1.6-1 .6-1.9 1.1-2.3c.6-.3 1.6-1.1 2.1-.7.4.2.6.6.7 1 0 .5.5.3 1 .3.8-.1 1.6.4 1.8 1.3.4 1.2.4 1.2 0 2.1m9.3-.7c-.6.6-.8 1.5-.6 2.4.5.8.5 1.8 0 2.6-.3.6-.4 2.3-1.7 2-1.2-.3-1.4.5-1.9-.6s0-1.2.8-1.2.5-1.4.4-2.2-.1-1.7 0-2.5c0-1.1.6-1.3 1.6-1.6s2.3 0 1.7 1.2M59 190.8c.4 0 .8-.6 1.1-.4l1.3.4c.9 0 1.2.5 1.3 1.4s0 1.4-.4 1.8c-.7.4-1.4.6-2.2.7-.8 0-1.6.1-2.3.3-.8.5-1.2.8-1.8-.4-.6-1.1.5-1.4 1.3-2q.9-.9 1.5-1.8" class="st0"/><path d="M83.9 287c0-1.2 0-1.4 1.3-1.7s1.4 1 1.7 1.5c.7 1.8.9 3.7.5 5.6 0 .8-.9 1.6-1.3 2.3-.4.6-.8 1.3-.9 2.1-.4.9-.5 1.8-.5 2.7 0 .6.9 1.9.5 2.3s-1.3 1.6-1.8 1.3c-.8-.6-1.5-1.3-2.1-2-1.1-1.1-.6-3.5-.6-5q.3-1.35 0-2.7-.45-1.2 0-2.4c.1-.9.5-1.7 1.3-2.2.6-.4 1-1.4 1.9-1.8m36.2-25.6s1.6-2.1 1.7-2.1c.2.9.3 1.9.4 2.8 0 .8-.6 2.4-1.6 1.9-1.1-.4-.6-2-.5-2.6m15.9 3c1.6-.2 3.2.1 4.6.9 1.2.9 2.4 2 3.4 3.1s2.3 2 3.1 3.1 0 3.1-.3 4.2c-.3 1-2.4-2.3-2.6-2.7-.8-1.4-2-2.4-2.7-3.9-.6-1.3-1.7-2.4-3.1-2.9q-1.05.15-2.1 0c-.5 0-1.1-1.4-.6-1.8m12.9 9.2c.4.9.8 1.9 1.1 2.8s2.3.8 2.9.9 2 0 2.5.8 0 2.3-.8 1.9-1.1-1.1-2.3-1.1c-1 0-1.9-.2-2.7-.7-.9-.3-2-.8-1.1-1.8.8-1.2-.4-2 .4-2.8m8.1 6.4c.7-.1 1.5.1 2.1.5.7.1 1.3.1 2 0 .8 0 1.5.1 2.3.4 1.1.4 1.2.6 0 1.3s-3.3-.4-4-.6c-.6-.3-1.3-.5-2-.5s-1.6-.9-.5-1.3m9.8 2.5h1.6c.2 0 .5 1.4-.6 1.5-.6.1-1.1.1-1.7 0-.7 0-.9.3-1.6.5-.5.1-1.1.1-1.6 0-.6 0-1.1-1.2 0-1.2 1.4.2 2.8-.1 4.1-.7M151 265.5c1.5-.1 2.9-.7 4-1.6.7-.5 1.3-1.1 1.9-1.7.6-.7 1.1-1.8 2.1-1.4s2 .9 2 1.2c-.1.3-.7.8-1.7 1.4s-.4 1.3 0 1.9c.5.7.5 1.7 0 2.4-.6 1.1-1.4 1.6-1.4 2.1s-.8 1.1-1 2c-.3.9-.8 1-1.4.4s-1.3-1-2.1-1c-.5 0-1.9.6-2.4.3-.4-.7-.6-1.4-.8-2.2-.4-.7-.6-1.5-.5-2.3-.1-.8-.1-1.3 1.3-1.5m15.8 2.8c-1.7-.3-3.5 0-5 .9-1.3.9-2 2.5-1.9 4.1q-.3 1.2 0 2.4c0 .4 1.5 1.6 2 1.4 1.6-.4-1.3-2.5-.5-3.9.6 0 .6.8.8 1.3.2.6.8 1 1.4 1.1.8.3 1.6 0 1.3-.7-.3-.5-.8-.9-1.3-1.2-1.7-.8 1.3-.8 1.8-1.2s-1.6-.9-2.3-1.2 1.2-1.4 2.1-1.5 2.4-.8 1.4-1.6m1.6-3.8c.6-.3 1.8 0 1.8.8v1.4c0 .5.8 0 1.2.6s-.4 1.4-.8 1.8c-.3.3-2.5-.6-2.9-1.4s.6-2.1.9-3.1m-3.8-7.4c0-.8.9-1.9 1.6-1.7.7.3.8 1.6.4 2.2-.3.6.6 1.3.6 2.4s1 2.2 0 2.5-1.2-.6-2.2-1c-.4-.1-.9-.1-1.3 0-.2.3-.5.4-.9.5-.4 0-1-1.3-.3-1.6s1.6-.8 2.5 0c0-.5.6-1 .5-1.6s-.4-.8-.7-1.3m-2-3.8c.5 0 1.9 1.6.8 1.7-.9.1-1.7-1.1-.8-1.7m1.9-1.7s1.1 1.1 1 1.4-.9.5-1.4.5-.8-3.2.4-1.9m-3.2-7.1c.8.1 1.4.5 1.9 1.2.6.9 0 1.1-.5 1.7s.3 1.8.7 2.2c.3.4.4 1.9 0 1.8-.8-.1-1.6-.4-2.3-.9-.7-.8 0-1.1 0-1.9s-1.3-3.6.6-4m.6-8.2c0-.6.2-1.2.6-1.6.5-.7 1.2.4 1.3.8.4 1.1.6 2.2.5 3.4-.3 1.4-1.5 1.7-2.6.7-.2-1-.2-2.1 0-3.1" class="st0"/><path d="M172.3 267.8c-1.4-2.4.8-2.3 2.6-2s.9.8 1.4 1.5 0 .6 0 .9c-.1.5.2 1.1.7 1.3.7.3 3.1-1.7 4.7-.6 1.5 1.1 2.4 3.1 4 4 .8.4 1.6.9 2.3 1.4.2.4.5.7.8.9.4.2.8 0 1.1.7.9 1.7 1.9 3.5 2.7 5.2.9 1.8 2.4 4.5.9 5.1-1.6.6-1.4-1.7-1.7-2.4s-1.7 0-2.4-.4c-.8-.4-1.9-2.3-3-2.3s-1.6 1.9-3.1 1.1c-1.6-.9-1.6-1.9-3.1-2.4-1.6-.5-2.8-1.1-2-2.4q.3-.9 0-1.8c0-.6-.3-1.3-.8-1.7-.9-.9-2.1-1.4-3.3-1.6-.6 0-1.3-.2-1.9-.4-.4 0-.8-1.1-1.2-1.4-.4-.4-1.1-.8 0-1.3q.75-.45 1.8-.6c0-.4 0-.4-.5-.6m20.9 2.3v-.6c1.4 0 4 1.6 3.4 3.1-.2.5-.7.9-1.3.8-.6 0-.5-.6-.8-1.1s0-1.1-.5-1.2c-.4-.1-.8-.5-.8-1m-.4 3.5v-.8c.9 0 1 .8.9 1.6.1.3.1.7 0 1 0 .4-.6.4-.8.7s-1.7.5-1.2-.6 1.6-.6 1.3-1.9m3.7.2c1.6-.5 1.5 3.1.4 3.6s-1.6-2.9-.4-3.6m.5 4.9c.3-.5.8-.8 1.3-.9q.15 1.05 0 2.1a4 4 0 0 1-.8 2.3c-.4.2-.8-1.1-.9-1.5s-.6-.5 0-1.1c.1-.4.4-.7.8-.9m-28 5.5 2.4.4h2.9c.9 0 .9.7.9 1.7s-.8 1.2-1.4 2c-.7.8.8 3.1 1.7 4.3s1.1 1.1 1.8 0c.6-.8 1.1-1.6 1.4-2.5 0-.8.8-1.4 1-2.1s.4-2.2 1.3-2.7c2.3-1.4 1.6 3.5 1.6 4.7-.1.8.1 1.7.5 2.4.5 1 .6 2.1.3 3.1-.3 1.7-.1 3.5.5 5.2a15 15 0 0 1-.3 8.2c-.4.8-.9 1.5-1.4 2.2l-1.3 2.6c-.4.8-1.3 1.1-1.6 1.9-.4.8-.9 1.6-1.4 2.4s-1.1 1.5-1.9 1.9c-1.4 1.1-2.8 2.2-4.3 3.1-.7.4-1.5.5-2.4.5H167c-.8.2-1.6-.1-2.2-.7-.6-.4-.7-1.8-.7-2.5-.3-1.8-.3-3.7 0-5.6-.8 0-1.3 1.2-2 .8s-.8-1.3-1.3-2.3-1.4-3.4-3.8-3.7c-3.7-.2-7.4.1-10.9 1.1-.7-.3-1.4-.7-1.9-1.2-.8-.5-1-1.5-.6-2.3.5-.7.9-1.4 1.2-2.2-.1-1.1 0-2.1.4-3.1q.45-1.05 1.2-2.1c.3-.8.4-1.8.9-2.7.7-1.5 2-2.8 3.5-3.5 1.7-.6 3.4-1.3 5-2.1.4-.1.9-.1 1.3 0 .5 0 .6-.4.9-.8s1.4-1.1 2.1-1.8c1.4-1.3 3.2-2 5-2 1.8-.3 2.9-2 4.5-3m-6.5 42.3c.6-.1 1.1 0 1.6.3s0 .7 0 .8c.4 0 .8-.1 1.1-.3.4 0 1.3-.9 1.9-.8.4.2.6.7.4 1v.1c-.1.1-.2.3-.3.3l-1.5 1.5c-.4.5-.6 1.4-1.1 1.8s-2.7.4-2.5-1.3c-.7.4-1.6.1-2-.7v-.6c.3-1 1-1.8 1.9-2.2M70.5 176.1c.7 0 1.5.1 2.2.3 1 .3 1.2 0 2-.6.8.6.3 1.7 0 2.3-.9.9-2.1 1.3-3.3 1.2-1 0-2.2 0-2.2-1.2s.9-1.4 1.6-1.9m88.7 16.3c2.3 1.3 4.4 2.8 6.3 4.6.8.6.9.7 1 1.6 0 .6.4 1.2.9 1.5.5.4 3.1 2.1 1.8 2.8-1.3.8-3.1-.7-3.5-1s-.8-2.6-1.3-3.5c-1.4-2.2-4.2-3.1-5.4-5.7l.6-.3m12.3.5c.4 0 2.7 1.3 1.4 1.5s-1.9.6-2.7 0l1.3-1.3m1 2.7c.7 0 .7.6 0 .9-.7.4-1.3 0-1.8 0s-.4-.9 0-1.1q.75-.3 1.5 0m-3.9 8.1c.5.4 1.1.7 1.8 1 .5 0 2.5-.8 2.8 0s1.4.9 0 1.6-1.8.9-2 1.4-.4 1.9-.9 1.8-1-1.9-1.3-2.8-3-2.9-.4-3" class="st0"/><path d="M173.2 208.1c.8.5 0 1.6.3 2.2s1.3.5 1.4 1.4-.3 1.9 0 2.6q.3 1.35 0 2.7c-.2.3-.3.6-.4.9v1c0 .3-.5 0-.6.6-.2.4-.3.9-.4 1.3 0 1.1-.9.6-1.6 1-1 .7-2 1.1-3.1 1.4.3.7 0 2.2-1.3 1.6s0-1.9 0-2.4 1.2-1.6 1.7-2.4 1.4-.8 2.3-.9c0-.8-1.8-1.5-1.8-2.3s1.7-1.6 1.9-2.6c.2-.9-.6-2.6 0-3.4s.4-2.9 1.5-3" class="st0"/><path d="M171.6 223.7c-.9-.4-3.6 1.3-2.6 1.7s2.9-.6 2.6-1.7m-3.4 2.3-.5-.8c-.5.5-2.1 2.3-1.4 3 .6.7.9-.5 1.2-.8.2-.4 1.3-.6.7-1.4m14.9-46.7c1.7.2 3.3-.5 4.4-1.8.5-.7 1.1-1.2 1.9-1.4s1.5-.5 2.3-.9c.9-.3 1.8-.6 2.6-1 .7-.5 1.5-.9 2.3-1.2 1.7-.3 3.5 0 5 .8 1.2.5 3.6.6 4.1 2.1.5 1.4 0 1.4.5 2.3.6.7.9 1.6.8 2.5-.2.2-.3.5-.4.8v1.6c0 .7-1.1 1.4-1.6 1.9-.5.6-1.3 1-2.1 1.1-.6 0-.6-2.8-.8-3.1-.1-.3-.9 0-1.1.8-.4-.3-.6-.6-.8-1.1q-1.2.75-2.4 1.2c-.8.2-1.7.2-2.5 0h-5.7c-.8 0-1.6-.2-2.4-.4-.4 0-1-.6-1.2 0-.3.4-.6.8-1.1 1-1.2.2-2.4.2-3.5 0-1 .2-2.1.2-3.1 0 1.1-2.1 4.1-2.4 5.1-4.5m10.6 17.9c.8 0 1.5.5 1.8 1.3 0 .8-1.5.7-2 .7s-1.9-.6-1.7-1.3 1.4-.6 1.9-.7m-3.8 1.9c.6 0 1.3.2 1.7.7.7.7-.4 1.1-1 1.1s-1.7 0-2.1-.6c-.5-.6.6-.7 1.4-1.2m27.2 12.6c1 .3 1 .5 1.6 1.4s1.1 1.5.4 2c-.8.5-1.3-1.1-1.6-1.6-.3-.4-1.1-1 0-1.8m9-29c.3-.7 0-.9 1-.8s.8 0 1.3.6c.4.6 1.2 1.9.5 3s-1.4.9-2.4 0-.4-2.2 0-3.1m7.8-10.5c.6-1.1 1.4-2.1 2.5-2.8.7-.4 3.5-.9 3.1.4-.7 0-1.3.1-1.9.3-.4.4-.9.8-1.3 1.3-.3.4-.7.8-1.1 1.2-.5.4-1.7.5-1.2-.5m4-.4c.8-.5 1.8-.7 2.8-.4.5 0 .4-1.6.8-2 .3-.4.8-1.7 1.6-2 1-.4 2.1-.6 3.1-.6 1.9 0 3.7-.8 5.3.4 1.6 1.3.9.4 2 0 .9-.2 1.9-.1 2.7.5l2.5 1.4c.8.5 1.5 1.1 2.2 1.7.8.5 1.6 0 2.4.4 1 .2 1.9.6 2.7 1.3 1.1.8.9.9 1 2.3.2 1 .6 1.9 1.2 2.8.3.7 0 1.6.3 2.3.5.9.9 1.8 1.3 2.8.2.8.6 1.4 1.3 1.9s1.2 1.3 1.3 2.1c0 2.3-1.4 2.8-3.5 2.8a13 13 0 0 1-5.1-1.1c-1.9-.8-3.5-2-4.8-3.5-.6-.7-1.2-1.3-1.9-1.8-.8-.6-1.6-.6-1.7-1.6-.1-.9.6-2 0-2.3l-3.1-.5c-1.6-.3-3.2-.4-4.8-.4-.9-.1-1.9.1-2.7.4-.6.4 0 .8 0 .9s-1.1 0-1.4 0c0 2.7 3.1 1.3 4.8 2s3.6.9 5.4 1.5c.8.1 1.6.6 1.9 1.4.5.8 1.2 1.5 2 1.8l2.6.9c1.1.4 1.3 1.3 0 1.7s-1.8 0-1.8.8c-.1.8.4 1.8.3 2.7s0 1.8-1.1 1.6q-1.35-.3-2.7-.9c-1.2-.6-5.3 1-5.2-1.4 0-.8.9-1.4 1.1-2.2.3-.8-.7-1.2-1.4-1.6-.9-.5-1.9-.7-2.9-.8-1-.3-2-.9-2.8-1.7 0 0-.9-.4-1.1-.8-.2-.5-.5-1.1-.8-1.6-.6-1-1.6-1.6-2.8-1.7-1.6 0-1.3-1.4-1.8-2.4-.2-.5-.4-1-.4-1.6 0-.9 0-.5-.9-.7s-.6-.4-.7-1.2-.9-.9-.8-1.5 2.1 0 2.1.8c.6 0 .8-1.1.8-1.7.1-.7.3-1.3.8-1.9m36.6 5.6c.7-.7 1.8-.7 2.5 0 1 .7 2.2 1 3.1 1.7s1.7 1.4 2.4 2.3c.4.5.8.8 0 1.3q-.75.15-1.5 0c-1.4 0-1.8-.7-2.8-1.3-1.1-.6-.5-.9-1.1-1.2q-.75-.3-1.5 0c-1.1.4-2 .4-2.6-.7s-.3-1.3 0-1.4 1.3 0 1.4-.8m-42.4 1c.5-1 .8-1.8 1.9-1.1 1.2.7 0 1.8 0 2.4s-1.7-.3-1.8-1.3m-2.6 3.4c.4-.7 1-1.3 1.6-1.9s1.9-.6 1.6.6c-.3.8-.8 1.5-1.3 2.1-.8 1.2-1.6.1-1.9-.8m4.3-.2c1.2-.8 1.9 0 2 1.4s-.4 1.9-.5 3.1c-1 0-1.8-1.1-2.4-1.8s.4-.9.7-1.1 0-1.2 0-1.6h.3m-3.5 2.7c.5-.6 1.4-.7 2-.3l.3.3c.5.6.6.7.4 1.5-.1.5-.1.9 0 1.4.2.4.7.6 1.1.6.6 0 .9 0 1.2.8s.8.6 1 1.1c.3.5 0 .8-.6 1.2s-1.9 0-3 0c-1-.1-2-.4-2.8-1.1v-2.7c0-.6-1-2.1 0-2.8" class="st0"/><path d="M316.2 280.8c-.9-1.4-1.6-2.8-2.2-4.4 0-.4-1.5-1-1.9-1.3-.7-.3-1.4-.6-2.1-.8l-4.4-1.4c-.6-.3-1.2-.5-1.9-.7h-2.5c.4-1.2.3-2.6-.4-3.7-.6-1-1.4-2.6-2.7-2.9-1.4 0-2.8-.5-3.9-1.4-.4-.6-.8-1.2-1-1.9-.4-.5-1-1-1.6-1.3-1.1-.8-2.2-1.7-3.3-2.5-1-1-2.1-1.9-3.4-2.5-.6-.1-1.2-.4-1.8-.6-.8-.4-1.3-1.1-2-.4s-2 2.1-3.1 2c.4-.8 1.1-.9 1.6-1.6.4-.7.6-.6 0-1.1-.6-.4-.6-.8-1-.7-1.8.7-3.7 1.2-5.6 1.4-.9 0-1.1 1.3-1.6 1.7s-.3 0-.5 0l-.5.4c-.3 0-.8.9-1.2.8s-1.6-.6-2.3-.3-1.9 1.2-2.4 1-1.8-.4-2.2-1.1c-.2-.8-.2-1.7 0-2.5.3-1.7 1-4.2-1.6-4.2-1.6 0-3.7 2-4.9 0s2.9-3.6.6-4.6c-2.4-1.1-3.6.9-5 1.4-.8.6-1.9.6-2.6 0-.6-.7-1.1-1.5-1.6-2.3-.6-.7-.9-1.6-.8-2.5 0-.8.3-1.6.7-2.3.2-1 .6-1.9 1.1-2.7.9-.9 1.4-.4 2.7 0s1.6-.6 2.2-.9c1-.3 1.9-.5 3-.7 1.1 0 1.4-.7 2.5-.4 1 .3 1.8.9 2.3 1.8.5.8 0 1.6 0 2.4s.8 2.1 1.6 1.3c1.5-1.2 1.8-3.5.7-5.1-.4-.7-.9-1.1-.8-1.9 0-.8.3-1.6.9-2.3 1-1.3 2-2.6 2.9-4 .5-1.4.8-2.9.8-4.4 0-1.6.7-3 2-3.9 1.3-.6.8-2.6 1.7-3.8.9-1.3 1.9-2.6 3-3.8q.6-.75.6-1.8c0-.8-1.4-.9-.9-1.7s.8 0 .9-.4 0-.6-.4-.7c-.8-.2-1.6 0-2.1.5.4.5 1 .6.6 1.2s-.7 1.6-1.4.8 0-1-1.3-1.3q-1.05-.15-2.1 0c.5-.7.9-1.4 1.7-1.5s1.8-.4 2.7-.5 3.9-.9 4.1-2.6-.7-1.5-1.3-2.3-.5-.9-.8-.9l-1.5.3c-1.7-.2-3.4-.7-5.1-1.3-1.8-.3-3.4-1.5-4.3-3.1-.4-.6-.8-1.4-1.7-.9-.7.5-1.7.5-2.4 0-1.6-.9-3.5-1.2-5.3-.9-1.2 0-1.5.4-1.7 1.5s.3 1.3 1.2 2 0 1.3.9 1.9 1.3 1 1.4 1.7c.5 1.6.6 3.3.4 4.9-.9-.6-1.7-1.7-2.8-1.9-1.1 0-2.1-.3-3.1-.6l-3.1-1.7h-1.4c-.3-.5-.8-.9-1.2-1.3-1.1-.9-.9-1.4 0-2.3.9-.8 1.9-1.5 2.1-2.8s-.9-2.5-.5-2.8c1-.5 2.1-1 3.1-1.3-.6-1.5-3.1-2.3-4.3-3.1-.8-.4-1.5-.9-2.2-1.5-.8-.8-.7-1.4-1.8-1.9-1.1-.4-1.6-.6-1.8.6 0 .9.1 1.8.5 2.7s1.4 1.6.8 2.6c-.6.9-1.4.8-2.6.8-1.7.4-3.5.2-5.1-.5l-2.5-1.3c-.9-.5-1.3-1.1-2.3-1.4-1.8-.1-3.5-.3-5.2-.7-1.7-.8-3.3-1.7-4.9-2.7l-1.7-.9c-.5 0-1-.9-1.4-1.1-1.4.3-2.9.7-4.2 1.3q-1.95.3-3.9 1.2c-.5.5-.7 1.2-.7 1.9 0 .9-.6.9-1.5.9-.9.1-.7 0-1.1.9s-.7.8-1.2 1.3c-.8 1.1-.9 2.6-.4 3.9.3.9.8 1.1 0 1.8-.8.8-.5.8-1.7.5s-2.8-.4-3.7.5c.2.4.5.7.8 1.1h1.1c.9.5 1.9.6 3 .4.9-.4 1.2-1.1 2.1-.4 1 .8 1.9 0 2.5-.3 1.9-.3 3.9-.3 5.8 0 1.9 0 2.9 2.1 3.6 3.6 1.7 3.1 2.6 6.7 4.3 9.9 0 .4.6.3.8.8q.15.6 0 1.2v11.5c0 .6 1.3 1.6 1.6 2.4l1.4 2.6c.4.8 1.3 1.6 1.6 2.3.6 1.8 1.5 3.5 2.5 5s1.7 3.5 3.3 4.4 0-2 0-2.2-1.2-1.2-1-2.3c.2-1 0-1.4-.9-2.3l-1.8-2.3c-.6-.9-.4-1.6.7-1.3s1.1 1.1 1.5 1.9c.3.8.7 1.6 1.2 2.3.6.8.8 1.7 1.4 2.5s1.1.9 1.6 1.6.7 2.1 1.4 2.6 1.8 0 2.1.9.8 1.8 1.1 2.6c1.4 3.4 4.5 5.9 8.2 6.3.9-.1 1.8-.1 2.6 0 .9.3 1.8.8 2.5 1.4 1.4 1.1 3 2 4.6 2.6.9 0 1.7-.5 2.4 0 .8.5.8 1.6 1.7 2.1.7.5 1.5.9 2.4 1.1.4-.1.8-.1 1.1 0 .4.3 0 1 .7 1.3s1.1-.6 1.4-1.3c.2-.7.9-1.1 1.6-.9.2.1.4.2.5.3 1.5 1.1 2.2 3 1.7 4.8 0 .8-1 1.4-1.4 2.1l-1.5 2.8c-.5 1.7-.5 3.5 0 5.1q.45 1.35.6 2.7c0 1.1.3 2.2.8 3.1.5 1.7.8 3.5.6 5.3q-.15 1.35 0 2.7.6 1.35 1.5 2.4c.6.8 1.3 1.5 2 2.2.5.4 0 1.9 0 2.6.1.6.1 1.3 0 1.9 0 .6-.6 1.1-.6 1.7-.2 1.3-.7 2.5-1.3 3.6l-.7 1.6c0 .5-.9.6-1.1 1.1-.2.4-.4 1.3-.7 1.9s-.8 1-.9 1.6v1.8c.1.5-.1 1.1-.4 1.5l-1.8 2.9c-.7 1.2-1.3 2.4-1.9 3.6-.6 1.1-1.3 2.2-2 3.1.5 0 1.1.8.8 1.3s-1.2.8-1.7 1.1-2.3 1.4-2.5 2.5.7 3.1 0 3.8c-.7.6-2.1 2-.5 2.7-.9 1.3-1.8 2.4-.5 3.9.4.4 1.4 1 1.5 1.5s0 1.3 0 2c.6 0 1.1-.7 1.6-.3l1 .7c.3.1.7.1 1.1 0 .8-.3.4-.4 0-1.1-.4-.6-.3-.3 0-1.1q.15-.6 0-1.2c-.6-1.7-1.2.5-1.8-.4.3-.3.5-.7.8-.9.3-.3.4-.3 1.1-.5.9-.3 1.6-.9 1.9-1.8.8-1.6 1.7-3.2 2.6-4.7 1.1-1.8 2.5-3.4 4.1-4.8 1.1-1.3 2.5-2.3 4-3.1 1.8-.5 3.6-1.2 5.2-2.2 1.4-1.3 2.7-2.6 4-4s3.4-1.5 4.8-2.8c.8-.5 1.7-.9 2.6-1.1.9-.4 1.7-.9 2.5-1.4 1.4-.8 2.8-1.8 4.1-2.8s2.4-2.6 3.9-3.1c1.4-.6 2.7-1.4 3.8-2.5 1.5-1 2.6-2.3 3.4-3.8.3-.8.7-1.6 1.3-2.3.5-.7.4-1.4.6-2.2.7-1.6 1.7-3 2.9-4.3 1.1-1.2 2-2.6 2.7-4.1.3-.7.7-1.4 1.1-2.1.6-.9 0-1.3-.4-2.2M262.9 215c.3-.6 1.1-.4 1.6-.8.5-.3 1.1-.1 1.3.4 0 .8-3.1.8-3.5.6l.5-.3m-5.6-.9c.7.1 1.4.4 2.1.8.5 0 2.6.9 1.3 1.4s-1.8-.4-2.4-.6c-.7-.2-2.6-1.3-1-1.6m-1.4.6c-.6.8-2 4.1-3.1 3.1 0-.4.6-.7.7-1.1l.4-1.7c0-.9 1.7-1.8 2.1-.5m-5.7-2.7c.9 0 1.9-.2 2.8-.6 1-.6-1.7-1.2-.9-2.1s2.1.8 2.6 1.1c.7.8 1.1 1.8 1.1 2.8-1 0-2-.3-3.1-.3s-3.2 0-2.5-.9" class="st0"/><path d="M275.9 211.4c-.3.5-.9 1.6-1.4 1.7-.6.2-.6-1.2 0-1.7.6-.6.9-1.6 1.8-1.5.8.1.6 1.1 0 1.5m.2-7c0-.4.7-1.6 1.4-.9s0 1.4-.6 1.8c.8.4 3 0 3.1 1.3.1.6-.2 1.2-.8 1.6-.7 0-1-.4-1.3-.9s-2.6 1.4-3.3 0 .9-2.3 1.4-2.9m-12.8 39.7c1.4.8 3 1.4 4.6 1.6.8 0 1.4.6 1.6 1.3 0 .4-1.9.4-2.3.4-1.7-.3-3.2-.9-4.6-1.9-.6-.4-.9-1.1-.8-1.8 0-1.1 1.4 0 1.8.4m11.2 2.7c1.3 0 3 0 3.3 1.4.4 1.4-.9 0-1.1 0q-1.05-.15-2.1 0c-.6 0-1.3-.1-1.8-.4-.3 0-.6-.9-1.1-1.2s.9-.6 1.1-.6c.2-.1 1.3-.1 1.7.8m5.1 1.7c.7 0 .8-.4 1.4 0s.8.8.8 1-1.9-.3-2.4-.6v-.4m-31.8-54.9c.8 0 1.6.4 2 1.1.4.8 0 1.6-1.1 1.3s-1.6-.5-2.1-1.4c-.4-.9 0-.9 0-1.1.5.1.8.1 1.2.1" class="st0"/></g></svg>