<svg width="1200" height="675" viewBox="0 0 1200 675" fill="none" xmlns="http://www.w3.org/2000/svg">
<rect width="1200" height="675" fill="white"/>
<g clip-path="url(#clip0_2145_981)">
<path d="M0 0V675" stroke="#DEDEE3"/>
<path d="M39.9971 0V675" stroke="#DEDEE3"/>
<path d="M79.9932 0V675" stroke="#DEDEE3"/>
<path d="M119.99 0V675" stroke="#DEDEE3"/>
<path d="M159.986 0V675" stroke="#DEDEE3"/>
<path d="M199.982 0V675" stroke="#DEDEE3"/>
<path d="M239.979 0V675" stroke="#DEDEE3"/>
<path d="M279.976 0V675" stroke="#DEDEE3"/>
<path d="M319.972 0V675" stroke="#DEDEE3"/>
<path d="M359.969 0V675" stroke="#DEDEE3"/>
<path d="M399.965 0V675" stroke="#DEDEE3"/>
<path d="M439.961 0V675" stroke="#DEDEE3"/>
<path d="M479.958 0V675" stroke="#DEDEE3"/>
<path d="M519.954 0V675" stroke="#DEDEE3"/>
<path d="M559.951 0V675" stroke="#DEDEE3"/>
<path d="M599.947 0V675" stroke="#DEDEE3"/>
<path d="M639.943 0V675" stroke="#DEDEE3"/>
<path d="M679.938 0V675" stroke="#DEDEE3"/>
<path d="M719.937 0V675" stroke="#DEDEE3"/>
<path d="M759.933 0V675" stroke="#DEDEE3"/>
<path d="M799.93 0V675" stroke="#DEDEE3"/>
<path d="M839.926 0V675" stroke="#DEDEE3"/>
<path d="M879.922 0V675" stroke="#DEDEE3"/>
<path d="M919.917 0V675" stroke="#DEDEE3"/>
<path d="M959.915 0V675" stroke="#DEDEE3"/>
<path d="M999.912 0V675" stroke="#DEDEE3"/>
<path d="M1039.91 0V675" stroke="#DEDEE3"/>
<path d="M1079.9 0V675" stroke="#DEDEE3"/>
<path d="M1119.9 0V675" stroke="#DEDEE3"/>
<path d="M1159.9 0V675" stroke="#DEDEE3"/>
<path d="M1199.89 0V675" stroke="#DEDEE3"/>
<path d="M0 0H1200" stroke="#DEDEE3"/>
<path d="M0 39.9966H1200" stroke="#DEDEE3"/>
<path d="M0 79.9927H1200" stroke="#DEDEE3"/>
<path d="M0 119.989H1200" stroke="#DEDEE3"/>
<path d="M0 159.986H1200" stroke="#DEDEE3"/>
<path d="M0 199.982H1200" stroke="#DEDEE3"/>
<path d="M0 239.979H1200" stroke="#DEDEE3"/>
<path d="M0 279.976H1200" stroke="#DEDEE3"/>
<path d="M0 319.972H1200" stroke="#DEDEE3"/>
<path d="M0 359.968H1200" stroke="#DEDEE3"/>
<path d="M0 399.965H1200" stroke="#DEDEE3"/>
<path d="M0 439.961H1200" stroke="#DEDEE3"/>
<path d="M0 479.957H1200" stroke="#DEDEE3"/>
<path d="M0 519.954H1200" stroke="#DEDEE3"/>
<path d="M0 559.95H1200" stroke="#DEDEE3"/>
<path d="M0 599.946H1200" stroke="#DEDEE3"/>
<path d="M0 639.943H1200" stroke="#DEDEE3"/>
<path d="M0 675H1200" stroke="#DEDEE3"/>
<path d="M680 240V280H720V320H680V360H720V400H680V440H720V480H680V520H720V560H680V600H720V640H440V600H480V560H440V520H480V480H440V440H480V400H440V360H480V320H440V280H480V240H680Z" fill="#AD5CFF"/>
<path d="M600 320.5V519.5H640V559.5H520V519.5H560V360.5H520V320.5H600Z" fill="#7300E5"/>
<path d="M680 240H680.5V239.5H680V240ZM680 280H679.5V280.5H680V280ZM720 280H720.5V279.5H720V280ZM720 320V320.5H720.5V320H720ZM680 320V319.5H679.5V320H680ZM680 360H679.5V360.5H680V360ZM720 360H720.5V359.5H720V360ZM720 400V400.5H720.5V400H720ZM680 400V399.5H679.5V400H680ZM680 440H679.5V440.5H680V440ZM720 440H720.5V439.5H720V440ZM720 480V480.5H720.5V480H720ZM680 480V479.5H679.5V480H680ZM680 520H679.5V520.5H680V520ZM720 520H720.5V519.5H720V520ZM720 560V560.5H720.5V560H720ZM680 560V559.5H679.5V560H680ZM680 600H679.5V600.5H680V600ZM720 600H720.5V599.5H720V600ZM720 640V640.5H720.5V640H720ZM440 640H439.5V640.5H440V640ZM440 600V599.5H439.5V600H440ZM480 600V600.5H480.5V600H480ZM480 560H480.5V559.5H480V560ZM440 560H439.5V560.5H440V560ZM440 520V519.5H439.5V520H440ZM480 520V520.5H480.5V520H480ZM480 480H480.5V479.5H480V480ZM440 480H439.5V480.5H440V480ZM440 440V439.5H439.5V440H440ZM480 440V440.5H480.5V440H480ZM480 400H480.5V399.5H480V400ZM440 400H439.5V400.5H440V400ZM440 360V359.5H439.5V360H440ZM480 360V360.5H480.5V360H480ZM480 320H480.5V319.5H480V320ZM440 320H439.5V320.5H440V320ZM440 280V279.5H439.5V280H440ZM480 280V280.5H480.5V280H480ZM480 240V239.5H479.5V240H480ZM680 240H679.5V280H680H680.5V240H680ZM680 280V280.5H720V280V279.5H680V280ZM720 280H719.5V320H720H720.5V280H720ZM720 320V319.5H680V320V320.5H720V320ZM680 320H679.5V360H680H680.5V320H680ZM680 360V360.5H720V360V359.5H680V360ZM720 360H719.5V400H720H720.5V360H720ZM720 400V399.5H680V400V400.5H720V400ZM680 400H679.5V440H680H680.5V400H680ZM680 440V440.5H720V440V439.5H680V440ZM720 440H719.5V480H720H720.5V440H720ZM720 480V479.5H680V480V480.5H720V480ZM680 480H679.5V520H680H680.5V480H680ZM680 520V520.5H720V520V519.5H680V520ZM720 520H719.5V560H720H720.5V520H720ZM720 560V559.5H680V560V560.5H720V560ZM680 560H679.5V600H680H680.5V560H680ZM680 600V600.5H720V600V599.5H680V600ZM720 600H719.5V640H720H720.5V600H720ZM720 640V639.5H440V640V640.5H720V640ZM440 640H440.5V600H440H439.5V640H440ZM440 600V600.5H480V600V599.5H440V600ZM480 600H480.5V560H480H479.5V600H480ZM480 560V559.5H440V560V560.5H480V560ZM440 560H440.5V520H440H439.5V560H440ZM440 520V520.5H480V520V519.5H440V520ZM480 520H480.5V480H480H479.5V520H480ZM480 480V479.5H440V480V480.5H480V480ZM440 480H440.5V440H440H439.5V480H440ZM440 440V440.5H480V440V439.5H440V440ZM480 440H480.5V400H480H479.5V440H480ZM480 400V399.5H440V400V400.5H480V400ZM440 400H440.5V360H440H439.5V400H440ZM440 360V360.5H480V360V359.5H440V360ZM480 360H480.5V320H480H479.5V360H480ZM480 320V319.5H440V320V320.5H480V320ZM440 320H440.5V280H440H439.5V320H440ZM440 280V280.5H480V280V279.5H440V280ZM480 280H480.5V240H480H479.5V280H480ZM480 240V240.5H680V240V239.5H480V240Z" fill="#DEDEE3"/>
<path d="M600.002 79.5V119H640.5V200H519.5V119H560.002V79.5H600.002Z" fill="#FF9900"/>
<mask id="path-54-inside-1_2145_981" fill="white">
<path d="M600.5 79V119H640.5V200H519.5V119H559.5V79H600.5Z"/>
</mask>
<path d="M600.5 79H601.5V78H600.5V79ZM600.5 119H599.5V120H600.5V119ZM640.5 119H641.5V118H640.5V119ZM640.5 200V201H641.5V200H640.5ZM519.5 200H518.5V201H519.5V200ZM519.5 119V118H518.5V119H519.5ZM559.5 119V120H560.5V119H559.5ZM559.5 79V78H558.5V79H559.5ZM600.5 79H599.5V119H600.5H601.5V79H600.5ZM600.5 119V120H640.5V119V118H600.5V119ZM640.5 119H639.5V200H640.5H641.5V119H640.5ZM640.5 200V199H519.5V200V201H640.5V200ZM519.5 200H520.5V119H519.5H518.5V200H519.5ZM519.5 119V120H559.5V119V118H519.5V119ZM559.5 119H560.5V79H559.5H558.5V119H559.5ZM559.5 79V80H600.5V79V78H559.5V79Z" fill="#DEDEE3" mask="url(#path-54-inside-1_2145_981)"/>
<path d="M599.5 160H560.5V240.54H599.5V160Z" fill="#D14600"/>
</g>
<rect width="40" height="40" transform="matrix(-1 0 0 1 80 80)" fill="#AD5CFF" stroke="#DEDEE3"/>
<rect width="40" height="40" transform="matrix(-1 0 0 1 920 40)" fill="#7300E5" stroke="#DEDEE3"/>
<rect width="40" height="40" transform="matrix(-1 0 0 1 160 240)" fill="#AD5CFF" stroke="#DEDEE3"/>
<rect width="40" height="40" transform="matrix(-1 0 0 1 199.998 200)" fill="#AD5CFF" stroke="#DEDEE3"/>
<rect width="40" height="40" transform="matrix(-1 0 0 1 199.998 280)" fill="#AD5CFF" stroke="#DEDEE3"/>
<rect width="40" height="40" transform="matrix(-1 0 0 1 240.001 240)" fill="#AD5CFF" stroke="#DEDEE3"/>
<rect width="40" height="40" transform="matrix(-1 0 0 1 1040 200)" fill="#AD5CFF" stroke="#DEDEE3"/>
<rect width="40" height="40" transform="matrix(-1 0 0 1 880.001 320)" fill="#AD5CFF" stroke="#DEDEE3"/>
<rect width="40" height="40" transform="matrix(-1 0 0 1 360 319)" fill="#7300E5" stroke="#DEDEE3"/>
<rect width="40" height="40" transform="matrix(-1 0 0 1 839.998 360)" fill="#AD5CFF" stroke="#DEDEE3"/>
<rect width="40" height="40" transform="matrix(-1 0 0 1 240 440)" fill="#AD5CFF" stroke="#DEDEE3"/>
<rect width="40" height="40" transform="matrix(-1 0 0 1 999.996 520.001)" fill="#AD5CFF" stroke="#DEDEE3"/>
<rect width="40" height="40" transform="matrix(-1 0 0 1 1040 480)" fill="#AD5CFF" stroke="#DEDEE3"/>
<rect width="40" height="40" transform="matrix(-1 0 0 1 1040 560.001)" fill="#AD5CFF" stroke="#DEDEE3"/>
<rect width="40" height="40" transform="matrix(-1 0 0 1 1080 520.001)" fill="#AD5CFF" stroke="#DEDEE3"/>
<rect width="40" height="40" transform="matrix(-1 0 0 1 119.998 560.001)" fill="#7300E5" stroke="#DEDEE3"/>
<rect width="40" height="40" transform="matrix(-1 0 0 1 1160 600)" fill="#7300E5" stroke="#DEDEE3"/>
<defs>
<clipPath id="clip0_2145_981">
<rect width="1200" height="675" fill="white"/>
</clipPath>
</defs>
</svg>
